<?xml version="1.0" encoding="utf-8"?>
<!-- Generator: Adobe Illustrator 19.1.0, SVG Export Plug-In . SVG Version: 6.00 Build 0)  -->
<svg version="1.2" baseProfile="tiny" id="Capa_1" xmlns="http://www.w3.org/2000/svg" xmlns:xlink="http://www.w3.org/1999/xlink"
	 x="0px" y="0px" viewBox="-82 605.9 30 30" xml:space="preserve">
<g display="none">
	<path id="Facebook" display="inline" fill="#CDCDCD" d="M-70.2,611.9c0,0.7,0,4,0,4h-3v4.9h3l0,14.6h6.1v-14.6h4.1
		c0,0,0.4-2.4,0.6-4.9c-0.5,0-4.6,0-4.6,0s0-2.9,0-3.4c0-0.5,0.7-1.2,1.3-1.2c0.7,0,2,0,3.3,0c0-0.7,0-3,0-5.1c-1.7,0-3.6,0-4.5,0
		C-70.3,606.3-70.2,611.2-70.2,611.9z"/>
</g>
<g display="none">
	<g display="inline">
		<g>
			<g>
				<path fill="#CDCDCD" d="M-67.7,616.5c-2.2-4-4.6-7.3-5-7.8c-3.8,1.8-6.6,5.2-7.5,9.4C-79.6,618.1-74,618.2-67.7,616.5z"/>
				<path fill="#CDCDCD" d="M-66.1,621l0.5-0.2c-0.3-0.8-0.7-1.5-1.1-2.3c-6.7,2-13.2,1.9-13.8,1.9l0,0.4c0,3.5,1.3,6.6,3.5,9
					C-76.7,629.4-73,623.2-66.1,621z"/>
				<path fill="#CDCDCD" d="M-64.1,617.7c0.3,0.6,0.6,1.3,0.9,1.9l0.3,0.7c4.5-0.6,8.9,0.3,9.4,0.4c0-3.2-1.2-6.1-3-8.4
					C-56.9,612.8-59.1,615.7-64.1,617.7z"/>
				<path fill="#CDCDCD" d="M-64.7,623.1c-7.6,2.6-10.3,7.9-10.6,8.4c2.3,1.8,5.1,2.8,8.3,2.8c1.9,0,3.6-0.4,5.3-1.1
					C-61.9,632.1-62.7,628-64.7,623.1L-64.7,623.1z"/>
				<path fill="#CDCDCD" d="M-58.1,610.8c-2.4-2.1-5.5-3.4-8.9-3.4c-1.1,0-2.1,0.1-3.2,0.4c0.4,0.5,2.8,3.8,5,7.9
					C-60.3,613.9-58.3,611.2-58.1,610.8z"/>
				<path fill="#CDCDCD" d="M-62.1,622.5c1.8,4.8,2.5,8.8,2.6,9.6c3-2,5.2-5.3,5.8-9C-54.2,622.9-57.9,621.8-62.1,622.5z"/>
			</g>
		</g>
	</g>
</g>
<g>
	<g>
		<path fill="#CDCDCD" d="M-52.8,612c-1.1,0.5-2.2,0.8-3.4,0.9c1.2-0.7,2.1-1.9,2.6-3.2c-1.1,0.7-2.4,1.2-3.7,1.4
			c-1.1-1.1-2.6-1.9-4.3-1.9c-3.2,0-5.9,2.6-5.9,5.9c0,0.5,0.1,0.9,0.2,1.3c-4.9-0.2-9.2-2.6-12.1-6.1c-0.5,0.9-0.8,1.9-0.8,3
			c0,2,1,3.8,2.6,4.9c-1,0-1.9-0.3-2.7-0.7v0.1c0,2.8,2,5.2,4.7,5.8c-0.5,0.1-1,0.2-1.5,0.2c-0.4,0-0.7,0-1.1-0.1
			c0.7,2.3,2.9,4,5.5,4.1c-2,1.6-4.5,2.5-7.3,2.5c-0.5,0-0.9,0-1.4-0.1c2.6,1.7,5.7,2.6,9,2.6c10.8,0,16.7-8.9,16.7-16.7l0-0.8
			C-54.5,614.2-53.5,613.2-52.8,612z"/>
	</g>
</g>
<g display="none">
	<g display="inline">
		<path fill="#CDCDCD" d="M-65,624.6c-0.3-0.4-0.6-0.7-0.9-1.1c-0.3-0.3-0.7-0.6-1-0.9c-0.3-0.3-0.7-0.5-0.9-0.8
			c-0.3-0.2-0.5-0.5-0.7-0.8c-0.2-0.3-0.3-0.5-0.3-0.8c0-0.4,0.1-0.8,0.4-1.1c0.2-0.3,0.5-0.7,0.9-1s0.7-0.7,1.1-1
			c0.4-0.4,0.7-0.9,0.9-1.5c0.2-0.6,0.4-1.3,0.4-2.1c0-0.9-0.2-1.9-0.6-2.7s-1-1.5-1.8-2h2.2l2.2-1.3h-7.1c-1,0-2,0.1-3,0.3
			c-1.5,0.3-2.7,1.1-3.8,2.3c-1,1.2-1.5,2.5-1.5,4c0,1.6,0.6,2.9,1.7,4c1.1,1.1,2.5,1.6,4.1,1.6c0.3,0,0.7,0,1.1-0.1
			c0,0.1-0.1,0.2-0.1,0.3c-0.1,0.1-0.1,0.3-0.1,0.3c0,0.1-0.1,0.2-0.1,0.3c0,0.1,0,0.3,0,0.4c0,0.7,0.3,1.5,1,2.4
			c-0.8,0-1.6,0.1-2.4,0.2c-0.8,0.1-1.6,0.3-2.5,0.6s-1.6,0.6-2.3,1.1c-0.7,0.5-1.2,1.1-1.5,1.8c-0.4,0.8-0.6,1.5-0.6,2.2
			c0,0.7,0.2,1.4,0.5,2c0.3,0.6,0.7,1.1,1.2,1.4c0.5,0.4,1.1,0.7,1.8,0.9c0.7,0.3,1.3,0.4,2,0.5c0.6,0.1,1.3,0.2,1.9,0.2
			c2.9,0,5.1-0.7,6.8-2.1c1.5-1.3,2.3-2.8,2.3-4.5c0-0.6-0.1-1.2-0.3-1.7C-64.5,625.4-64.7,625-65,624.6z M-71.2,618.7
			c-0.5,0-1.1-0.1-1.6-0.4c-0.5-0.3-0.9-0.6-1.3-1.1c-0.3-0.4-0.6-1-0.9-1.5s-0.5-1.1-0.6-1.7c-0.1-0.6-0.2-1.1-0.2-1.6
			c0-1,0.3-1.9,0.8-2.7c0.5-0.7,1.3-1.1,2.3-1.1c0.7,0,1.4,0.2,1.9,0.7c0.6,0.4,1,1,1.4,1.7s0.6,1.4,0.8,2.1
			c0.2,0.7,0.3,1.4,0.3,2.1c0,1.1-0.2,1.9-0.7,2.6C-69.4,618.4-70.2,618.7-71.2,618.7z M-66.7,630.8c-0.3,0.5-0.7,0.9-1.2,1.2
			c-0.5,0.3-1,0.5-1.6,0.6c-0.6,0.1-1.2,0.2-1.8,0.2c-0.7,0-1.4-0.1-2-0.2c-0.7-0.2-1.3-0.4-1.9-0.7c-0.6-0.3-1.1-0.8-1.5-1.4
			c-0.4-0.6-0.6-1.2-0.6-2c0-0.6,0.1-1.2,0.4-1.7s0.7-0.9,1.1-1.2c0.5-0.3,1-0.5,1.6-0.7c0.6-0.2,1.2-0.3,1.7-0.4
			c0.6-0.1,1.1-0.1,1.7-0.1c0.4,0,0.6,0,0.8,0c0.1,0,0.2,0.2,0.5,0.3c0.3,0.2,0.4,0.3,0.5,0.4c0.1,0.1,0.3,0.2,0.5,0.4
			c0.2,0.2,0.4,0.3,0.5,0.4c0.1,0.1,0.3,0.2,0.4,0.4s0.3,0.3,0.4,0.5c0.1,0.1,0.2,0.3,0.3,0.5s0.2,0.4,0.3,0.6s0.1,0.4,0.2,0.6
			c0,0.2,0.1,0.4,0.1,0.7C-66.3,629.7-66.4,630.3-66.7,630.8z"/>
		<polygon fill="#CDCDCD" points="-57.7,611.6 -57.7,607.5 -59.8,607.5 -59.8,611.6 -63.9,611.6 -63.9,613.7 -59.8,613.7 
			-59.8,617.8 -57.7,617.8 -57.7,613.7 -53.6,613.7 -53.6,611.6 		"/>
	</g>
</g>
</svg>
