<?xml version="1.0" encoding="utf-8"?>
<!-- Generator: Adobe Illustrator 19.1.0, SVG Export Plug-In . SVG Version: 6.00 Build 0)  -->
<svg version="1.2" baseProfile="tiny" id="Capa_1" xmlns="http://www.w3.org/2000/svg" xmlns:xlink="http://www.w3.org/1999/xlink"
	 x="0px" y="0px" viewBox="-282 405.3 30.6 30.6" xml:space="preserve">
<g>
	<path fill="#FFFFFF" d="M-257.1,411.7l-19.1,7.2c-0.1,0.1-0.3,0.2-0.3,0.4l0,0c0,0.2,0.1,0.4,0.4,0.4l8.8,1.7l1.5,8.1
		c0,0.1,0.1,0.3,0.4,0.4c0.1,0,0.4-0.1,0.4-0.2l8.4-17.3l0,0l0,0v-0.1c0.1-0.1,0.1-0.4-0.1-0.4c-0.1-0.1-0.3-0.1-0.4-0.1
		L-257.1,411.7L-257.1,411.7L-257.1,411.7z M-265.1,428.1l-1.3-6.9l8.3-7.5L-265.1,428.1z M-267.1,420.6l-7.5-1.5l15.8-6
		L-267.1,420.6z"/>
</g>
</svg>
